<?xml version="1.0" encoding="iso-8859-1"?>
<!-- Generator: Adobe Illustrator 23.0.2, SVG Export Plug-In . SVG Version: 6.00 Build 0)  -->
<svg version="1.1" id="Layer_1" xmlns="http://www.w3.org/2000/svg" xmlns:xlink="http://www.w3.org/1999/xlink" x="0px" y="0px"
	 viewBox="0 0 1000 1000" style="enable-background:new 0 0 1000 1000;" xml:space="preserve">
<rect id="XMLID_3_" style="fill:#D82435;" width="1000" height="1000"/>
<g id="XMLID_85_" style="opacity:0.15;">
	
		<polyline id="XMLID_86_" style="fill:none;stroke:#262626;stroke-width:14;stroke-linecap:round;stroke-linejoin:round;stroke-miterlimit:10;" points="
		625.878,289.952 655.006,213.368 742.75,197 	"/>
	
		<line id="XMLID_95_" style="fill:none;stroke:#262626;stroke-width:8;stroke-linecap:round;stroke-linejoin:round;stroke-miterlimit:10;" x1="261.37" y1="684.179" x2="771.816" y2="684.179"/>
	<g id="XMLID_84_">
		
			<polygon id="XMLID_1_" style="fill:none;stroke:#262626;stroke-width:8;stroke-linecap:round;stroke-linejoin:round;stroke-miterlimit:10;" points="
			700.604,684.179 561.087,684.179 518.941,380.105 742.75,380.105 		"/>
		
			<path id="XMLID_82_" style="fill:none;stroke:#262626;stroke-width:8;stroke-linecap:round;stroke-linejoin:round;stroke-miterlimit:10;" d="
			M771.816,380.105H488.421V368.35c0-23.044,18.681-41.725,41.725-41.725h199.944c23.044,0,41.725,18.681,41.725,41.725V380.105z"/>
		<path id="XMLID_83_" style="fill:#FFFFFF;" d="M731.124,326.625h-202.01v-0.908c0-19.752,16.012-35.765,35.765-35.765h130.48
			c19.752,0,35.765,16.012,35.765,35.765V326.625z"/>
		
			<path id="XMLID_87_" style="fill:none;stroke:#262626;stroke-width:8;stroke-linecap:round;stroke-linejoin:round;stroke-miterlimit:10;" d="
			M731.124,326.625h-202.01v-0.908c0-19.752,16.012-35.765,35.765-35.765h130.48c19.752,0,35.765,16.012,35.765,35.765V326.625z"/>
		<polygon id="XMLID_100_" style="fill:#FFFFFF;" points="717.182,564.577 730.618,467.634 531.073,467.634 544.509,564.577 		"/>
		
			<polygon id="XMLID_93_" style="fill:none;stroke:#262626;stroke-width:8;stroke-linecap:round;stroke-linejoin:round;stroke-miterlimit:10;" points="
			717.182,564.577 730.618,467.634 531.073,467.634 544.509,564.577 		"/>
	</g>
</g>
<g id="XMLID_126_">
	<g id="XMLID_122_" style="opacity:0.6;">
		
			<line id="XMLID_124_" style="fill:none;stroke:#DF5E4C;stroke-width:3;stroke-linecap:round;stroke-linejoin:round;stroke-miterlimit:10;" x1="301.031" y1="516.105" x2="305.626" y2="516.105"/>
		
			<line id="XMLID_123_" style="fill:none;stroke:#DF5E4C;stroke-width:3;stroke-linecap:round;stroke-linejoin:round;stroke-miterlimit:10;" x1="303.329" y1="513.808" x2="303.329" y2="518.403"/>
	</g>
	<g id="XMLID_4_" style="opacity:0.67;">
		
			<line id="XMLID_89_" style="fill:none;stroke:#DF5E4C;stroke-width:3;stroke-linecap:round;stroke-linejoin:round;stroke-miterlimit:10;" x1="771.816" y1="535.464" x2="776.411" y2="535.464"/>
		
			<line id="XMLID_88_" style="fill:none;stroke:#DF5E4C;stroke-width:3;stroke-linecap:round;stroke-linejoin:round;stroke-miterlimit:10;" x1="774.114" y1="533.167" x2="774.114" y2="537.762"/>
	</g>
	<g id="XMLID_119_">
		
			<line id="XMLID_121_" style="fill:none;stroke:#F7931E;stroke-width:4;stroke-linecap:round;stroke-linejoin:round;stroke-miterlimit:10;" x1="252.733" y1="516.105" x2="242.723" y2="516.105"/>
		
			<line id="XMLID_120_" style="fill:none;stroke:#F7931E;stroke-width:4;stroke-linecap:round;stroke-linejoin:round;stroke-miterlimit:10;" x1="247.728" y1="511.101" x2="247.728" y2="521.11"/>
	</g>
	<g id="XMLID_116_" style="opacity:0.7;">
		
			<line id="XMLID_118_" style="fill:none;stroke:#F7931E;stroke-width:4;stroke-linecap:round;stroke-linejoin:round;stroke-miterlimit:10;" x1="747.93" y1="500" x2="737.57" y2="500"/>
		
			<line id="XMLID_117_" style="fill:none;stroke:#F7931E;stroke-width:4;stroke-linecap:round;stroke-linejoin:round;stroke-miterlimit:10;" x1="742.75" y1="494.82" x2="742.75" y2="505.18"/>
	</g>
	<g id="XMLID_113_" style="opacity:0.4;">
		
			<line id="XMLID_115_" style="fill:none;stroke:#622F2F;stroke-width:5;stroke-linecap:round;stroke-linejoin:round;stroke-miterlimit:10;" x1="288.502" y1="604.471" x2="298.512" y2="604.471"/>
		
			<line id="XMLID_114_" style="fill:none;stroke:#622F2F;stroke-width:5;stroke-linecap:round;stroke-linejoin:round;stroke-miterlimit:10;" x1="293.507" y1="599.466" x2="293.507" y2="609.475"/>
	</g>
	<g id="XMLID_97_" style="opacity:0.6;">
		
			<line id="XMLID_109_" style="fill:none;stroke:#8DC838;stroke-width:3;stroke-linecap:round;stroke-miterlimit:10;" x1="670.406" y1="604.471" x2="677.826" y2="604.471"/>
		
			<line id="XMLID_108_" style="fill:none;stroke:#8DC838;stroke-width:3;stroke-linecap:round;stroke-miterlimit:10;" x1="674.116" y1="600.761" x2="674.116" y2="608.18"/>
	</g>
	
		<circle id="XMLID_92_" style="fill:none;stroke:#8DC838;stroke-width:4;stroke-miterlimit:10;" cx="742.75" cy="570.638" r="4.817"/>
	
		<circle id="XMLID_91_" style="opacity:0.8;fill:none;stroke:#8DC838;stroke-width:4;stroke-miterlimit:10;" cx="278.375" cy="555.145" r="3.815"/>
	
		<circle id="XMLID_90_" style="opacity:0.74;fill:none;stroke:#622F2F;stroke-width:3;stroke-linecap:round;stroke-linejoin:round;stroke-miterlimit:10;" cx="730.618" cy="631.429" r="3.323"/>
</g>
<g>
	<g id="XMLID_96_">
		<path id="XMLID_13_" style="fill:#EAA772;" d="M586.379,684H413.621c-35.697,0-64.635-28.83-64.635-64.527v-0.054
			c0-6.338,5.138-11.53,11.476-11.53h279.076c6.338,0,11.476,5.246,11.476,11.584v-0.054C651.014,655.116,622.076,684,586.379,684z"
			/>
		<g id="XMLID_98_" style="opacity:0.25;">
			<path id="XMLID_72_" style="fill:#EAA772;" d="M414.002,619.473v-0.054c0-6.338,5.138-11.53,11.476-11.53h-65.016
				c-6.338,0-11.476,5.192-11.476,11.53v0.054c0,35.697,28.938,64.527,64.635,64.527h65.016
				C442.94,684,414.002,655.17,414.002,619.473z"/>
			<path id="XMLID_102_" style="fill:#EAA772;" d="M349.246,620.059h301.495c-1.13-6.028-5.713-10.619-11.203-10.619H360.462
				C354.953,609.44,350.356,614.013,349.246,620.059z"/>
		</g>
	</g>
	
		<path id="XMLID_2_" style="fill:none;stroke:#442F2F;stroke-width:8;stroke-linecap:round;stroke-linejoin:round;stroke-miterlimit:10;" d="
		M586.379,684H413.621c-35.697,0-64.635-28.83-64.635-64.527v-0.054c0-6.338,5.138-11.53,11.476-11.53h279.076
		c6.338,0,11.476,5.246,11.476,11.584v-0.054C651.014,655.116,622.076,684,586.379,684z"/>
	<g id="XMLID_70_">
		<path id="XMLID_11_" style="fill:#EAA772;" d="M512.051,380.245h-24.922c-76.521,0-138.129,42.721-138.129,94.237v-0.123
			c0,11.051,12.883,19.886,29.299,19.886h242.584c16.415,0,30.118-8.804,30.118-19.856v0.015
			C651,422.889,588.572,380.245,512.051,380.245z"/>
		<path id="XMLID_71_" style="fill:#EAA772;" d="M512.051,380.245h-24.922c-76.521,0-138.129,42.721-138.129,94.237v-0.123
			c0,11.051,12.883,19.886,29.299,19.886h242.584c16.415,0,30.118-8.804,30.118-19.856v0.015
			C651,422.889,588.572,380.245,512.051,380.245z"/>
		<g id="XMLID_77_" style="opacity:0.3;">
			<path id="XMLID_78_" style="fill:#EAA772;" d="M349,474.482c0-0.027,0.001-0.054,0.002-0.082c0-0.014-0.002-0.028-0.002-0.042
				V474.482z"/>
			<path id="XMLID_79_" style="fill:#EAA772;" d="M532.408,381.269c-6.648-0.671-13.444-1.024-20.357-1.024h-24.922
				c-76.48,0-138.063,42.676-138.128,94.155c0.033,11.032,12.903,19.845,29.297,19.845h39.308v-16.897
				C426.929,426.204,467.728,387.904,532.408,381.269z"/>
		</g>
		
			<path id="XMLID_12_" style="fill:none;stroke:#442F2F;stroke-width:8;stroke-linecap:round;stroke-linejoin:round;stroke-miterlimit:10;" d="
			M512.051,380.245h-24.922c-76.521,0-138.129,42.721-138.129,94.237v-0.123c0,11.051,12.883,19.886,29.299,19.886h242.584
			c16.415,0,30.118-8.804,30.118-19.856v0.015C651,422.889,588.572,380.245,512.051,380.245z"/>
	</g>
	<g id="XMLID_46_">
		<path id="XMLID_15_" style="fill:#5B3E40;" d="M657.055,575.27c0,18.015-14.604,32.619-32.619,32.619H375.564
			c-18.015,0-32.619-14.604-32.619-32.619v0c0-18.015,14.604-32.619,32.619-32.619h248.871
			C642.451,542.651,657.055,557.255,657.055,575.27L657.055,575.27z"/>
		<g id="XMLID_49_" style="opacity:0.6;">
			<circle id="XMLID_48_" style="fill:#442F2F;" cx="359.876" cy="583.1" r="2.28"/>
			<circle id="XMLID_50_" style="fill:#442F2F;" cx="375.375" cy="593.428" r="2.28"/>
			<circle id="XMLID_51_" style="fill:#442F2F;" cx="365.649" cy="593.428" r="2.28"/>
			<circle id="XMLID_54_" style="fill:#442F2F;" cx="359.876" cy="575.197" r="2.28"/>
			<circle id="XMLID_53_" style="fill:#442F2F;" cx="373.095" cy="580.821" r="2.28"/>
			<circle id="XMLID_68_" style="fill:#442F2F;" cx="409.15" cy="587.66" r="2.28"/>
			<circle id="XMLID_69_" style="fill:#442F2F;" cx="451.42" cy="583.1" r="2.28"/>
			<circle id="XMLID_52_" style="fill:#442F2F;" cx="611.608" cy="593.428" r="2.28"/>
			<circle id="XMLID_56_" style="fill:#442F2F;" cx="597.399" cy="593.428" r="2.28"/>
			<circle id="XMLID_57_" style="fill:#442F2F;" cx="588.602" cy="593.428" r="2.28"/>
			<circle id="XMLID_58_" style="fill:#442F2F;" cx="593.161" cy="587.66" r="2.28"/>
			<circle id="XMLID_59_" style="fill:#442F2F;" cx="635.483" cy="575.197" r="2.28"/>
			<circle id="XMLID_60_" style="fill:#442F2F;" cx="633.203" cy="587.66" r="2.28"/>
			<circle id="XMLID_61_" style="fill:#442F2F;" cx="613.887" cy="572.918" r="2.28"/>
			<circle id="XMLID_62_" style="fill:#442F2F;" cx="531.619" cy="593.428" r="2.28"/>
			<circle id="XMLID_63_" style="fill:#442F2F;" cx="511.13" cy="593.428" r="2.28"/>
			<circle id="XMLID_64_" style="fill:#442F2F;" cx="519.232" cy="593.428" r="2.28"/>
			<circle id="XMLID_65_" style="fill:#442F2F;" cx="488.418" cy="593.428" r="2.28"/>
			<circle id="XMLID_66_" style="fill:#442F2F;" cx="478.623" cy="589.939" r="2.28"/>
			<circle id="XMLID_67_" style="fill:#442F2F;" cx="448.174" cy="592.219" r="2.28"/>
		</g>
		<g id="XMLID_94_" style="opacity:0.15;">
			<path id="XMLID_73_" style="fill:#5B3E40;" d="M406.336,590.267v-29.994c0-9.732,7.89-17.622,17.622-17.622h-48.394
				c-18.015,0-32.619,14.604-32.619,32.619v0c0,18.015,14.604,32.619,32.619,32.619h48.394
				C414.226,607.889,406.336,599.999,406.336,590.267z"/>
			<path id="XMLID_99_" style="fill:#5B3E40;" d="M624.436,547.651H375.564c-18.015,0-32.619,14.604-32.619,32.619v0
				c0,0.473,0.016,0.943,0.036,1.411c7.3-1.771,17.016-3.546,26.649-3.546c9.76,0,14.327,1.709,19.614,3.687
				c5.572,2.085,11.888,4.448,23.819,4.448c11.933,0,18.235-2.364,23.795-4.449c5.271-1.978,9.824-3.686,19.581-3.686
				s14.309,1.708,19.58,3.686c5.56,2.085,11.862,4.449,23.795,4.449c11.933,0,18.234-2.364,23.792-4.45
				c5.271-1.977,9.821-3.685,19.577-3.685c9.755,0,14.305,1.708,19.572,3.685c5.558,2.086,11.855,4.45,23.789,4.45
				c11.933,0,18.227-2.364,23.78-4.451c5.263-1.978,9.808-3.685,19.562-3.685c9.704,0,14.175,1.694,19.352,3.656
				c2.227,0.844,4.661,1.759,7.555,2.539c0.165-1.331,0.26-2.683,0.26-4.059v0C657.055,562.255,642.451,547.651,624.436,547.651z"/>
		</g>
		
			<path id="XMLID_5_" style="fill:none;stroke:#442F2F;stroke-width:8;stroke-linecap:round;stroke-linejoin:round;stroke-miterlimit:10;" d="
			M657.055,575.27c0,18.015-14.604,32.619-32.619,32.619H375.564c-18.015,0-32.619-14.604-32.619-32.619v0
			c0-18.015,14.604-32.619,32.619-32.619h248.871C642.451,542.651,657.055,557.255,657.055,575.27L657.055,575.27z"/>
	</g>
	<g id="XMLID_44_">
		<path id="XMLID_16_" style="fill:#D83634;" d="M651.014,535.402c0,4.003-3.245,7.249-7.249,7.249H356.235
			c-4.003,0-7.249-3.245-7.249-7.249v-16.914c0-4.003,3.245-7.249,7.249-7.249h287.531c4.003,0,7.249,3.245,7.249,7.249V535.402z"/>
		<path id="XMLID_55_" style="fill:#D83634;" d="M651.014,535.402c0,4.003-3.245,7.249-7.249,7.249H356.235
			c-4.003,0-7.249-3.245-7.249-7.249v-16.914c0-4.003,3.245-7.249,7.249-7.249h287.531c4.003,0,7.249,3.245,7.249,7.249V535.402z"/>
		<path id="XMLID_75_" style="opacity:0.3;fill:#D83634;" d="M403.88,535.402v-16.914c0-4.003,3.245-7.249,7.249-7.249h-54.894
			c-4.003,0-7.249,3.245-7.249,7.249v16.914c0,4.003,3.245,7.249,7.249,7.249h54.894C407.125,542.651,403.88,539.405,403.88,535.402
			z"/>
		<rect id="XMLID_45_" x="520.658" y="511.24" style="opacity:0.2;fill:#FFFFFF;" width="22.73" height="31.411"/>
		<rect id="XMLID_47_" x="550.427" y="511.24" style="opacity:0.2;fill:#FFFFFF;" width="6.616" height="31.411"/>
		
			<path id="XMLID_7_" style="fill:none;stroke:#442F2F;stroke-width:8;stroke-linecap:round;stroke-linejoin:round;stroke-miterlimit:10;" d="
			M651.014,535.402c0,4.003-3.245,7.249-7.249,7.249H356.235c-4.003,0-7.249-3.245-7.249-7.249v-16.914
			c0-4.003,3.245-7.249,7.249-7.249h287.531c4.003,0,7.249,3.245,7.249,7.249V535.402z"/>
	</g>
	<g id="XMLID_74_">
		<path id="XMLID_14_" style="fill:#8DC838;" d="M326.49,533.167v-0.009c11.313-23.445,39.471-38.913,70.862-38.913h205.296
			c31.391,0,59.549,15.468,70.862,38.913v0.004c-21.685,0-21.685-19.345-43.37-19.345c-21.686,0-21.686,19.348-43.371,19.348
			c-21.688,0-21.688-19.346-43.377-19.346c-21.689,0-21.689,19.347-43.377,19.347c-21.69,0-21.69-19.346-43.379-19.346
			c-21.689,0-21.689,19.347-43.378,19.347c-21.692,0-21.692-19.347-43.384-19.347S348.182,533.167,326.49,533.167z"/>
		<path id="XMLID_80_" style="fill:#73B727;" d="M634.107,500c-11.967-6.137-16.6-5.755-31.459-5.755H419.049h-5.027h-16.67
			c-31.391,0-59.549,15.468-70.862,38.913v0.009c21.692,0,21.692-19.347,43.384-19.347c13.903,0,25.034,11.59,32.538,17.297
			l2.364-2.709c4.482-5.136,7.997-10.98,10.436-17.252c2.572-6.617,8.858-11.041,15.957-11.045L634.107,500z"/>
		
			<path id="XMLID_8_" style="fill:none;stroke:#442F2F;stroke-width:8;stroke-linecap:round;stroke-linejoin:round;stroke-miterlimit:10;" d="
			M326.49,533.167v-0.009c11.313-23.445,39.471-38.913,70.862-38.913h205.296c31.391,0,59.549,15.468,70.862,38.913v0.004
			c-21.685,0-21.685-19.345-43.37-19.345c-21.686,0-21.686,19.348-43.371,19.348c-21.688,0-21.688-19.346-43.377-19.346
			c-21.689,0-21.689,19.347-43.377,19.347c-21.69,0-21.69-19.346-43.379-19.346c-21.689,0-21.689,19.347-43.378,19.347
			c-21.692,0-21.692-19.347-43.384-19.347S348.182,533.167,326.49,533.167z"/>
	</g>
	<g id="XMLID_76_">
		<path id="XMLID_9_" style="fill:#FBB03B;" d="M328.615,564.621c-1.036,4.643,4.191,8.521,9.545,7.094
			c8.293-2.21,19.889-4.58,31.47-4.58c21.692,0,21.741,8.135,43.433,8.135c21.689,0,21.687-8.135,43.376-8.135
			c21.69,0,21.686,8.135,43.375,8.135c21.689,0,21.681-8.135,43.37-8.135c21.688,0,21.673,8.135,43.361,8.135
			c21.686,0,21.656-8.136,43.341-8.136c17.518,0,20.639,5.308,32.789,7.349c5.14,0.863,9.681-2.952,8.709-7.284l-0.906-1.896
			c-6.536-13.685-22.309-22.652-39.844-22.652H368.124C350.908,542.651,335.356,551.299,328.615,564.621L328.615,564.621z"/>
		<path id="XMLID_81_" style="fill:#F99A29;" d="M656.02,549.667c-7.212-4.45-16.04-7.016-25.384-7.016H418.481h-7.353h-6.399
			h-36.606c-17.216,0-32.767,8.648-39.509,21.97h0c-1.036,4.643,4.191,8.521,9.545,7.094c8.293-2.21,19.889-4.58,31.47-4.58
			c10.575,0,16.006,1.934,21.309,3.915l2.027-1.592c2.794-2.194,5.951-5.984,8.686-9.664c4.725-6.358,12.158-10.127,20.079-10.127
			H656.02z"/>
		
			<path id="XMLID_6_" style="fill:none;stroke:#442F2F;stroke-width:8;stroke-linecap:round;stroke-linejoin:round;stroke-miterlimit:10;" d="
			M328.615,564.621c-1.036,4.643,4.191,8.521,9.545,7.094c8.293-2.21,19.889-4.58,31.47-4.58c21.692,0,21.741,8.135,43.433,8.135
			c21.689,0,21.687-8.135,43.376-8.135c21.69,0,21.686,8.135,43.375,8.135c21.689,0,21.681-8.135,43.37-8.135
			c21.688,0,21.673,8.135,43.361,8.135c21.686,0,21.656-8.136,43.341-8.136c17.518,0,20.639,5.308,32.789,7.349
			c5.14,0.863,9.681-2.952,8.709-7.284l-0.906-1.896c-6.536-13.685-22.309-22.652-39.844-22.652H368.124
			C350.908,542.651,335.356,551.299,328.615,564.621L328.615,564.621z"/>
	</g>
	
		<path id="XMLID_17_" style="fill:none;stroke:#442F2F;stroke-width:8;stroke-linecap:round;stroke-linejoin:round;stroke-miterlimit:10;" d="
		M417.607,654.97L417.607,654.97c-6.225,0-11.271-5.046-11.271-11.271v-35.811h22.541v35.811
		C428.877,649.924,423.831,654.97,417.607,654.97z"/>
	<path id="XMLID_10_" style="fill:#D83634;" d="M417.607,654.97L417.607,654.97c-6.225,0-11.271-5.046-11.271-11.271v-35.811h22.541
		v35.811C428.877,649.924,423.831,654.97,417.607,654.97z"/>
	<path id="XMLID_20_" style="fill:#D83634;" d="M456.029,632.228L456.029,632.228c-4.998,0-9.051-4.052-9.051-9.051v-15.289h18.101
		v15.289C465.079,628.176,461.027,632.228,456.029,632.228z"/>
	
		<path id="XMLID_19_" style="fill:none;stroke:#442F2F;stroke-width:8;stroke-linecap:round;stroke-linejoin:round;stroke-miterlimit:10;" d="
		M456.029,632.228L456.029,632.228c-4.998,0-9.051-4.052-9.051-9.051v-15.289h18.101v15.289
		C465.079,628.176,461.027,632.228,456.029,632.228z"/>
	
		<path id="XMLID_18_" style="fill:none;stroke:#442F2F;stroke-width:8;stroke-linecap:round;stroke-linejoin:round;stroke-miterlimit:10;" d="
		M417.607,654.97L417.607,654.97c-6.225,0-11.271-5.046-11.271-11.271v-35.811h22.541v35.811
		C428.877,649.924,423.831,654.97,417.607,654.97z"/>
	<path id="XMLID_22_" style="fill:#D83634;" d="M565.74,661.827L565.74,661.827c-9.339,0-16.909-7.57-16.909-16.909v-37.029h33.818
		v37.029C582.65,654.256,575.079,661.827,565.74,661.827z"/>
	
		<path id="XMLID_21_" style="fill:none;stroke:#442F2F;stroke-width:8;stroke-linecap:round;stroke-linejoin:round;stroke-miterlimit:10;" d="
		M565.74,661.827L565.74,661.827c-9.339,0-16.909-7.57-16.909-16.909v-37.029h33.818v37.029
		C582.65,654.256,575.079,661.827,565.74,661.827z"/>
	<g>
		<circle id="XMLID_42_" style="fill:#442F2F;" cx="392.525" cy="639.812" r="3.555"/>
		<circle id="XMLID_41_" style="fill:#442F2F;" cx="596.064" cy="661.774" r="1.999"/>
		<circle id="XMLID_40_" style="fill:#442F2F;" cx="496.147" cy="660.812" r="1.533"/>
		<circle id="XMLID_39_" style="fill:#442F2F;" cx="483.822" cy="636.474" r="3.889"/>
		<circle id="XMLID_37_" style="fill:#442F2F;" cx="457.562" cy="655.708" r="1.533"/>
		<circle id="XMLID_38_" style="fill:#442F2F;" cx="526.391" cy="645.944" r="6.132"/>
		<circle id="XMLID_103_" style="fill:#442F2F;" cx="600.82" cy="638.233" r="2.757"/>
		<circle id="XMLID_101_" style="fill:#442F2F;" cx="509.386" cy="632.131" r="2.108"/>
	</g>
	<g id="XMLID_24_">
		<circle id="XMLID_23_" style="fill:#442F2F;" cx="427.877" cy="423.75" r="3.93"/>
		<circle id="XMLID_25_" style="fill:#442F2F;" cx="487.712" cy="438.772" r="3.889"/>
		<circle id="XMLID_34_" style="fill:#442F2F;" cx="510.181" cy="452.148" r="1.999"/>
		<circle id="XMLID_33_" style="fill:#442F2F;" cx="581.699" cy="428.529" r="3"/>
		<circle id="XMLID_43_" style="fill:#442F2F;" cx="508.181" cy="404.49" r="6.132"/>
		<circle id="XMLID_30_" style="fill:#442F2F;" cx="554.894" cy="416.905" r="4.75"/>
		<circle id="XMLID_31_" style="fill:#442F2F;" cx="453.747" cy="439.937" r="2.39"/>
		<circle id="XMLID_27_" style="fill:#442F2F;" cx="526.391" cy="428.529" r="3.975"/>
		<circle id="XMLID_26_" style="fill:#442F2F;" cx="480.273" cy="412.155" r="1.533"/>
		<circle id="XMLID_32_" style="fill:#442F2F;" cx="437.082" cy="454.719" r="1.533"/>
		<circle id="XMLID_36_" style="fill:#442F2F;" cx="599.816" cy="432.362" r="0.767"/>
		<circle id="XMLID_35_" style="fill:#442F2F;" cx="456.137" cy="410.622" r="1.533"/>
		<circle id="XMLID_28_" style="fill:#442F2F;" cx="568.549" cy="452.614" r="1.533"/>
		<circle id="XMLID_29_" style="fill:#442F2F;" cx="544.824" cy="438.772" r="1.225"/>
	</g>
	
		<line id="XMLID_110_" style="fill:none;stroke:#F7931E;stroke-width:4;stroke-linecap:round;stroke-linejoin:round;stroke-miterlimit:10;" x1="357.78" y1="398.358" x2="365.833" y2="404.49"/>
	
		<line id="XMLID_111_" style="fill:none;stroke:#F7931E;stroke-width:4;stroke-linecap:round;stroke-linejoin:round;stroke-miterlimit:10;" x1="366.833" y1="385.912" x2="374.278" y2="397.358"/>
	
		<line id="XMLID_112_" style="fill:none;stroke:#F7931E;stroke-width:4;stroke-linecap:round;stroke-linejoin:round;stroke-miterlimit:10;" x1="383.452" y1="378.756" x2="383.452" y2="392.635"/>
</g>
</svg>
